HIERARCHY
ROOT Hips
{
  OFFSET 226.015 33.7722 -224.756
  CHANNELS 6 Xposition Yposition Zposition Zrotation Xrotation Yrotation
  JOINT ToSpine
  {
    OFFSET -2.69724 7.43032 -0.144315
    CHANNELS 3 Zrotation Xrotation Yrotation
    JOINT Spine
    {
      OFFSET -0.0310711 10.7595 1.96963
      CHANNELS 3 Zrotation Xrotation Yrotation
      JOINT Spine1
      {
        OFFSET 19.9056 3.91189 0.764692
        CHANNELS 3 Zrotation Xrotation Yrotation
        JOINT Neck
        {
          OFFSET 25.9749 7.03908 -0.130764
          CHANNELS 3 Zrotation Xrotation Yrotation
          JOINT Head
          {
            OFFSET 9.52751 0.295786 -0.907742
            CHANNELS 3 Zrotation Xrotation Yrotation
            End Site
            {
              OFFSET 16.4037 0.713936 2.7358
            }
          }
        }
        JOINT LeftShoulder
        {
          OFFSET 17.7449 4.33886 11.7777
          CHANNELS 3 Zrotation Xrotation Yrotation
          JOINT LeftArm
          {
            OFFSET 0.911315 1.27913 9.80584
            CHANNELS 3 Zrotation Xrotation Yrotation
            JOINT LeftForeArm
            {
              OFFSET 28.6126 1.18197 -3.53199
              CHANNELS 3 Zrotation Xrotation Yrotation
              JOINT LeftHand
              {
                OFFSET 27.5088 0.0218783 0.327423
                CHANNELS 3 Zrotation Xrotation Yrotation
                End Site
                {
                  OFFSET 18.6038 -0.000155887 0.382096
                }
              }
            }
          }
        }
        JOINT RightShoulder
        {
          OFFSET 17.1009 2.89543 -12.2328
          CHANNELS 3 Zrotation Xrotation Yrotation
          JOINT RightArm
          {
            OFFSET 1.4228 0.178766 -10.211
            CHANNELS 3 Zrotation Xrotation Yrotation
            JOINT RightForeArm
            {
              OFFSET 28.733 1.87905 2.64907
              CHANNELS 3 Zrotation Xrotation Yrotation
              JOINT RightHand
              {
                OFFSET 27.4588 0.290562 -0.101845
                CHANNELS 3 Zrotation Xrotation Yrotation
                End Site
                {
                  OFFSET 17.8396 -0.255518 -0.000602873
                }
              }
            }
          }
        }
      }
    }
  }
  JOINT LeftUpLeg
  {
    OFFSET -5.61296 -2.22332 -10.2353
    CHANNELS 3 Zrotation Xrotation Yrotation
    JOINT LeftLeg
    {
      OFFSET 2.56703 -44.7417 -7.93097
      CHANNELS 3 Zrotation Xrotation Yrotation
      JOINT LeftFoot
      {
        OFFSET 3.16933 -46.5642 -3.96578
        CHANNELS 3 Zrotation Xrotation Yrotation
        JOINT LeftToeBase
        {
          OFFSET 0.346054 -6.02161 12.8035
          CHANNELS 3 Zrotation Xrotation Yrotation
          End Site
          {
            OFFSET 0.134235 -1.35082 5.13018
          }
        }
      }
    }
  }
  JOINT RightUpLeg
  {
    OFFSET -5.7928 -1.72406 10.6446
    CHANNELS 3 Zrotation Xrotation Yrotation
    JOINT RightLeg
    {
      OFFSET -2.57161 -44.7178 -7.85259
      CHANNELS 3 Zrotation Xrotation Yrotation
      JOINT RightFoot
      {
        OFFSET -3.10148 -46.5936 -4.03391
        CHANNELS 3 Zrotation Xrotation Yrotation
        JOINT RightToeBase
        {
          OFFSET -0.0828122 -6.13587 12.8035
          CHANNELS 3 Zrotation Xrotation Yrotation
          End Site
          {
            OFFSET -0.131328 -1.35082 5.13018
          }
        }
      }
    }
  }
}
MOTION
Frames:	8
Frame Time:	0.0333333
226.015 33.7722 -224.756 -98.7803 -48.5586 175.784 -70.1915 0 88.8779 157.041 47.2197 -66.4116 14.1914 23.0766 -4.3189 -160.206 19.987 174.835 -142.154 57.3296 176.737 1.12744 -6.30445 -11.9948 -49.816 30.5371 -176.118 13.3788 9.23044 -51.2746 9.3279 0.446453 6.89124 0.23119 2.72301 11.7382 -51.298 -44.0379 154.704 52.6943 -8.02178 83.7673 9.22288 -1.1551 -15.6434 2.38499 27.2541 71.015 -172.037 10.839 167.007 27.557 8.18174 -4.80547 -45.2825 -61.0877 -51.6286 8.17561 -33.076 121.378 170.655 8.72784 -125.741 -12.6145 -11.9294 1.24448 12.6673 -31.5118 -8.59109 
225.983 33.7672 -224.761 -98.7276 -48.5671 175.806 -70.1915 0 88.8779 157.153 47.315 -66.5508 14.2788 23.194 -4.27829 -160.187 20.0025 174.366 -141.133 57.1112 175.879 1.12176 -6.49977 -11.947 -49.8516 30.4802 -176.148 13.0534 8.92451 -51.3988 9.353 0.474911 7.21307 0.226999 2.4369 11.9568 -51.5064 -43.7843 154.455 52.5069 -7.91035 83.822 9.29899 -1.18081 -15.8435 2.36933 27.1887 70.8663 -172.016 10.8084 166.689 27.4328 8.17107 -4.77948 -45.1365 -61.0701 -51.4336 8.09615 -33.0915 121.129 170.654 8.74675 -126.011 -12.9175 -11.7074 1.2591 12.6657 -31.4851 -8.69235 
226.004 33.7006 -224.708 -98.7324 -48.6146 175.713 -70.1915 0 88.8779 157.006 46.8795 -66.4579 13.5043 23.0392 -4.50684 -159.857 19.8701 173.719 -140.723 56.8212 175.265 1.10738 -6.25344 -11.3842 -49.3395 31.0097 -176.119 14.09 9.80551 -51.3109 9.39774 0.399492 6.30311 0.215769 2.69324 12.2882 -51.0184 -43.8594 154.567 52.3095 -7.81535 83.8615 9.14332 -1.17177 -16.0047 2.26551 27.054 71.4583 -172.087 10.8485 167.732 27.5958 7.96011 -4.77646 -45.7994 -61.0135 -52.5901 8.28733 -33.1444 121.705 170.655 8.65674 -125.662 -12.9112 -11.5519 1.26548 12.8991 -32.2044 -8.42497 
225.613 34.5679 -224.859 -99.2022 -48.6524 174.747 -70.1915 0 88.8779 157.072 46.7664 -67.7875 13.4816 22.9444 -4.88232 -159.609 19.7619 173.55 -140.652 56.7019 175.309 1.1025 -6.25876 -11.2457 -49.0796 30.4905 -176.096 16.1175 11.5884 -51.0969 11.5641 0.412055 5.58545 0.205163 2.77355 12.6257 -51.0862 -43.743 154.26 51.743 -7.72795 83.8161 9.70992 -1.24826 -15.9826 2.23301 26.629 72.2572 -171.254 10.4563 153.381 22.2567 6.24193 -3.54599 -30.9333 -58.0184 -31.5726 6.1866 -34.2877 120.031 170.656 9.4502 -126.397 -13.6807 -13.2771 1.19721 12.9353 -32.3308 -8.29656 
225.367 35.1333 -224.977 -99.2228 -48.3649 173.971 -70.1915 0 88.8779 157.165 47.202 -69.0607 13.9363 23.1586 -4.87038 -159.803 20.0418 174.147 -141.399 57.2259 176.202 1.10931 -6.49913 -11.5632 -49.1179 30.2518 -176.25 16.3321 11.8026 -51.022 11.9114 0.424351 5.58968 0.21481 2.7061 12.3174 -51.3006 -44.0234 153.993 52.6125 -7.80425 83.9357 9.61501 -1.18407 -15.3441 1.83356 26.5206 73.6616 -170.874 10.2787 143.212 18.5483 1.69653 -2.49709 -19.9077 -58.1459 -6.08401 5.5819 -34.3593 119.17 170.656 9.97117 -127.35 -14.3122 -13.2693 1.20108 12.7954 -31.9723 -8.12339 
225.351 35.1849 -225.029 -99.3206 -48.2793 174.007 -70.1915 0 88.8779 157.259 46.8853 -69.0571 13.749 23.1192 -5.22558 -159.921 19.8517 173.937 -141.845 57.0455 176.104 1.10657 -6.16682 -11.3229 -49.0127 30.2824 -176.43 16.2539 11.7033 -51.0967 11.6013 0.462874 6.05902 0.203474 2.86382 12.6428 -50.7035 -43.5648 154.274 55.2245 -8.26246 84.112 10.6765 -1.46379 -16.8971 1.93852 26.6949 73.2662 -170.86 10.2483 142.715 18.4045 1.85856 -2.49159 -19.9091 -57.9884 -6.28202 5.25116 -34.2441 118.64 170.655 10.0608 -127.62 -14.1812 -13.266 1.20054 12.8249 -32.006 -8.36952 
225.394 35.1735 -224.987 -98.9805 -48.3146 174.167 -70.1915 0 88.8779 157.095 47.0419 -68.8845 13.7848 23.0896 -5.26989 -159.883 19.8469 173.63 -140.869 56.7966 175.183 1.1029 -6.13567 -11.2065 -49.0781 30.6268 -176.514 16.1348 11.5421 -51.2416 10.7424 0.455027 6.31661 0.206857 2.72694 12.5877 -51.297 -44.1144 154.071 50.7317 -7.57516 83.7346 9.99594 -1.15279 -14.363 1.97625 26.6172 73.6707 -170.87 10.2886 143.096 18.7302 1.73824 -2.52555 -19.7043 -58.0832 -5.65808 5.79302 -34.1881 119.012 170.655 10.0466 -127.527 -14.0824 -13.0642 1.21061 12.8322 -32.0695 -8.15318 
225.413 35.2179 -224.968 -98.8877 -48.1281 174.176 -70.1915 0 88.8779 157.15 47.0868 -68.9714 13.9319 23.1836 -5.37022 -160.149 19.8408 173.621 -141.157 56.8189 175.187 1.09561 -6.30362 -11.0631 -49.1654 30.753 -176.442 16.1897 11.5889 -51.2469 10.9137 0.408715 5.77642 0.209468 2.60848 12.5476 -51.3558 -43.9931 154.171 51.3255 -7.536 83.8976 9.20537 -1.07665 -14.6458 1.81862 26.6726 73.8144 -170.87 10.347 143.09 18.3617 1.37924 -2.44436 -19.8576 -57.7901 -6.40054 5.9586 -33.9199 119.128 170.655 10.0595 -127.52 -14.0525 -13.3698 1.19438 12.5562 -31.1911 -8.60135 
